<?xml version="1.0" encoding="UTF-8"?>
<svg width="55px" height="55px" viewBox="0 0 55 55" version="1.1" xmlns="http://www.w3.org/2000/svg" xmlns:xlink="http://www.w3.org/1999/xlink">
    <!-- Generator: Sketch 52.3 (67297) - http://www.bohemiancoding.com/sketch -->
    <title>Group 13 Copy@1.5x</title>
    <desc>Created with Sketch.</desc>
    <g id="Page-1" stroke="none" stroke-width="1" fill="none" fill-rule="evenodd">
        <g id="phonix" transform="translate(-710.000000, -1845.000000)">
            <g id="3-column" transform="translate(106.000000, 637.000000)">
                <g id="Group-7" transform="translate(0.000000, 1074.000000)">
                    <g id="Group-13-Copy" transform="translate(606.000000, 136.000000)">
                        <circle id="Oval-2" stroke="#E0E2E4" stroke-width="1.5999999" fill="#FFFFFF" cx="25.5" cy="25.5" r="26.3"></circle>
                        <g id="right-arrow" transform="translate(10.000000, 14.000000)" fill="#C4CDD5" fill-rule="nonzero">
                            <path d="M21.205,0.333 C20.776,-0.111 20.062,-0.111 19.618,0.333 C19.189,0.762 19.189,1.476 19.618,1.904 L27.665,9.951 L1.111,9.951 C0.492,9.952 0,10.444 0,11.063 C0,11.682 0.492,12.19 1.111,12.19 L27.665,12.19 L19.618,20.222 C19.189,20.666 19.189,21.381 19.618,21.809 C20.062,22.253 20.777,22.253 21.205,21.809 L31.157,11.857 C31.601,11.428 31.601,10.714 31.157,10.286 L21.205,0.333 Z" id="Shape"></path>
                        </g>
                    </g>
                </g>
            </g>
        </g>
    </g>
</svg>