<?xml version="1.0" encoding="UTF-8"?>
<svg width="118px" height="116px" viewBox="0 0 118 116" version="1.1" xmlns="http://www.w3.org/2000/svg" xmlns:xlink="http://www.w3.org/1999/xlink">
    <!-- Generator: Sketch 52.3 (67297) - http://www.bohemiancoding.com/sketch -->
    <title>icon-home-2@1.5x</title>
    <desc>Created with Sketch.</desc>
    <g id="Page-1" stroke="none" stroke-width="1" fill="none" fill-rule="evenodd">
        <g id="phonix" transform="translate(-197.000000, -1743.000000)">
            <g id="3-column" transform="translate(106.000000, 637.000000)">
                <g id="Group-7" transform="translate(0.000000, 1074.000000)">
                    <g id="01-copy">
                        <g id="icon-home-2" transform="translate(91.000000, 33.000000)">
                            <g id="Group" transform="translate(12.000000, 20.000000)">
                                <circle id="Oval" fill="#FAF3EB" fill-rule="nonzero" cx="42.643" cy="47.5" r="41.837"></circle>
                                <path d="M45.64,65.537 C44.416,62.044 41.117,59.703 37.412,59.703 L25.21,59.703 L25.21,47.5 L28.696,50.986 C28.696,50.986 36.248,50.986 40.898,50.986 C48.872,50.986 47.871,42.27 47.871,42.27 L35.669,42.27 L23.467,30.068 L16.494,30.068 C12.644,30.068 9.522,33.19 9.522,37.041 L9.522,63.188 C9.522,68.963 14.205,73.647 19.981,73.647 L35.669,73.647 L46.128,94.566 L55.798,94.566 L45.64,65.537 Z" id="Shape" fill="#F7E7CD" fill-rule="nonzero"></path>
                                <path d="M21.724,24.674 C16.857,24.674 13.008,20.692 13.008,15.78 L13.008,12.814 C13.008,7.901 16.857,3.92 21.724,3.92 C26.592,3.92 30.44,7.901 30.44,12.814 L30.44,15.78 C30.439,20.692 26.591,24.674 21.724,24.674 Z" id="Shape" stroke="#2A5082" stroke-width="2" fill="#FFFFFF" fill-rule="nonzero"></path>
                                <path d="M25.21,50.986 L86.222,50.986" id="Shape" stroke="#2A5082" stroke-width="2"></path>
                                <polyline id="Shape" stroke="#2A5082" stroke-width="2" points="51.357 44.014 61.817 44.014 61.817 50.986"></polyline>
                                <polyline id="Shape" stroke="#2A5082" stroke-width="2" points="68.79 50.986 68.79 44.014 75.763 44.014 79.249 44.014 79.249 23.095 70.533 23.095"></polyline>
                                <path d="M68.79,37.041 L63.561,37.041 L63.561,0.434 L68.79,0.434 C70.715,0.434 72.276,1.995 72.276,3.92 L72.276,33.554 C72.276,35.48 70.715,37.041 68.79,37.041 Z" id="Shape" stroke="#2A5082" stroke-width="2" fill="#FFFFFF" fill-rule="nonzero"></path>
                                <path d="M18.237,84.106 L18.237,94.566" id="Shape" stroke="#2A5082" stroke-width="2"></path>
                                <path d="M46.128,94.566 L35.669,73.647 L19.98,73.647 C14.204,73.647 9.521,68.963 9.521,63.188 L9.521,37.041 C9.521,33.19 12.643,30.068 16.493,30.068 L23.466,30.068 L35.668,42.27 L47.87,42.27 C47.87,42.27 48.871,50.986 40.897,50.986 C36.248,50.986 28.695,50.986 28.695,50.986 L18.237,40.527" id="Shape" stroke="#2A5082" stroke-width="2"></path>
                                <path d="M25.21,47.5 L25.21,59.703 L37.412,59.703 C41.117,59.703 44.416,62.044 45.64,65.537 L55.799,94.566" id="Shape" stroke="#2A5082" stroke-width="2"></path>
                                <path d="M2.548,33.555 L2.548,66.676 C2.548,74.376 8.793,80.62 16.493,80.62 L32.182,80.62" id="Shape" stroke="#2A5082" stroke-width="2"></path>
                                <polyline id="Shape" stroke="#2A5082" stroke-width="2" points="2.548 59.703 16.494 59.703 21.724 66.676"></polyline>
                                <path d="M89.709,50.986 L93.195,50.986" id="Shape" stroke="#2A5082" stroke-width="2"></path>
                            </g>
                            <path d="M11.345,113.822 L103,113.822" id="Shape" stroke="#2A5082" stroke-width="2"></path>
                            <path d="M104.452,113.822 L111.785,113.822" id="Shape" stroke="#2A5082" stroke-width="2"></path>
                            <path d="M114.334,113.822 L118,113.822" id="Shape" stroke="#2A5082" stroke-width="2"></path>
                            <path d="M4.834,113.822 L8.5,113.822" id="Shape" stroke="#2A5082" stroke-width="2"></path>
                            <path d="M102.283,25.849 L102.283,33.972" id="Shape" stroke="#F7E7CD" stroke-width="2"></path>
                            <path d="M106.344,29.91 L98.222,29.91" id="Shape" stroke="#F7E7CD" stroke-width="2"></path>
                            <circle id="Oval" stroke="#F7E7CD" stroke-width="2" cx="110.405" cy="10.958" r="4.062"></circle>
                            <path d="M58.936,10.652 L46.287,10.652 C45.349,8.819 43.142,6.93 40.57,6.93 C39.754,6.93 38.976,7.123 38.262,7.41 C36.828,3.588 33.152,0.721 28.83,0.721 C23.269,0.721 18.761,6.987 18.75,10.653 L3.945,10.653" id="Shape" stroke="#F7E7CD" stroke-width="2"></path>
                            <path d="M13.109,25.316 L0.278,25.316" id="Shape" stroke="#F7E7CD" stroke-width="2"></path>
                            <path d="M16.775,25.316 L20.443,25.316" id="Shape" stroke="#F7E7CD" stroke-width="2"></path>
                            <path d="M62.604,10.652 L66.268,10.652" id="Shape" stroke="#F7E7CD" stroke-width="2"></path>
                            <path d="M69.936,10.652 L73.602,10.652" id="Shape" stroke="#F7E7CD" stroke-width="2"></path>
                        </g>
                    </g>
                </g>
            </g>
        </g>
    </g>
</svg>