<?xml version="1.0" encoding="UTF-8"?>
<svg width="20px" height="22px" viewBox="0 0 20 22" version="1.1" xmlns="http://www.w3.org/2000/svg" xmlns:xlink="http://www.w3.org/1999/xlink">
    <!-- Generator: Sketch 52.3 (67297) - http://www.bohemiancoding.com/sketch -->
    <title>user</title>
    <desc>Created with Sketch.</desc>
    <g id="Page-1" stroke="none" stroke-width="1" fill="none" fill-rule="evenodd">
        <g id="phonix" transform="translate(-199.000000, -59.000000)" fill="#33333A" fill-rule="nonzero">
            <g id="Group" transform="translate(0.000000, 11.000000)">
                <g id="Group-2" transform="translate(89.000000, 34.500000)">
                    <g id="user" transform="translate(110.000000, 13.500000)">
                        <path d="M16.9090909,13.8235866 C15.8040686,12.6590774 14.4564144,11.7969931 13.0213874,11.2751317 C14.5583445,10.15953 15.7818182,8.29248131 15.7818182,6.1813125 C15.7818182,2.77294514 13.3795956,0.234439024 10.1454545,0.234439024 C6.91131349,0.234439024 4.50909091,2.77294514 4.50909091,6.1813125 C4.50909091,8.29248131 5.83749132,10.15953 7.37448806,11.2751317 C5.93946107,11.7969931 4.48684048,12.6590774 3.38181818,13.8235866 C1.46559545,15.8430798 0.280335815,18.5280666 0.280335815,21.384 L1.58522727,21.384 C1.58522727,16.4095888 5.42532145,11.88 10.1454545,11.88 C14.8655876,11.88 18.7056818,16.4095888 18.7056818,21.384 L19.8953845,21.384 C19.8953845,18.5280666 18.825274,15.8430798 16.9090909,13.8235866 Z M10.1454545,10.692 C7.78540781,10.692 5.86534091,8.668539 5.86534091,6.1813125 C5.86534091,3.694086 7.78540781,1.670625 10.1454545,1.670625 C12.5055013,1.670625 14.4255682,3.694086 14.4255682,6.1813125 C14.4255682,8.668539 12.5055013,10.692 10.1454545,10.692 Z" id="Shape"></path>
                    </g>
                </g>
            </g>
        </g>
    </g>
</svg>