<svg id="em8e5kcgliad1" xmlns="http://www.w3.org/2000/svg" xmlns:xlink="http://www.w3.org/1999/xlink" viewBox="0 0 108 59" shape-rendering="geometricPrecision" text-rendering="geometricPrecision"><g id="em8e5kcgliad2"><g id="em8e5kcgliad3" transform="matrix(1 0 0 1 -106 -16)"><g id="em8e5kcgliad4" transform="matrix(1 0 0 1 106 16)"><g id="em8e5kcgliad5" transform="matrix(1 0 0 1 0.53465300000000 35.40000000000000)"><path id="em8e5kcgliad6" d="M38.291372,23.600000C41.338520,23.600000,43.855565,21.226751,44.246730,18.150653L44.299847,18.150653C47.618240,18.150653,50.308345,15.336209,50.308345,11.864411L50.308345,7.621190L50.308339,7.621190C50.308339,6.492869,49.434065,5.578182,48.355596,5.578182C47.277127,5.578182,46.402853,6.492869,46.402853,7.621190L46.402853,11.864411L46.402918,11.864411C46.402918,13.079585,45.461343,14.064685,44.299859,14.064685L44.299859,7.621215C44.299859,6.492894,43.425585,5.578206,42.347116,5.578206C41.268647,5.578206,40.394373,6.492894,40.394373,7.621215L40.394367,7.621215L40.394367,17.313758L40.394431,17.313758C40.394431,18.528932,39.452856,19.514032,38.291372,19.514032C37.129888,19.514032,36.188313,18.528932,36.188313,17.313758L36.188377,17.313758L36.188377,7.621215C36.188377,6.492894,35.314103,5.578206,34.235634,5.578206C33.157165,5.578206,32.282891,6.492894,32.282891,7.621215L32.282885,7.621215L32.282885,17.313758C32.282885,20.785544,34.972979,23.600000,38.291384,23.600000L38.291372,23.600000Z" fill="rgb(220,26,82)" fill-rule="evenodd" stroke="none" stroke-width="1"/><path id="em8e5kcgliad7" d="M15.089940,0C16.168407,0,17.042680,0.914688,17.042680,2.043010L17.042686,2.043010L17.042686,11.735560L17.042622,11.735560C17.042622,12.950734,17.984196,13.935835,19.145678,13.935835L19.145678,11.735560C19.145678,8.263772,21.835769,5.449314,25.154169,5.449314C28.472557,5.449314,31.162659,8.263760,31.162659,11.735560C31.162659,15.207348,28.472569,18.021806,25.154169,18.021806L25.154169,13.935847C26.315651,13.935847,27.257225,12.950747,27.257225,11.735572C27.257225,10.520398,26.315651,9.535297,25.154169,9.535297C23.992686,9.535297,23.051112,10.520398,23.051112,11.735572L23.051177,11.735572L23.051177,18.021818L19.145690,18.021818C15.827302,18.021818,13.137199,15.207373,13.137199,11.735572L13.137199,2.043022C13.137199,0.914700,14.011472,1.225951,0,0L15.089940,0Z" fill="rgb(220,26,82)" fill-rule="evenodd" stroke="none" stroke-width="1"/><path id="em8e5kcgliad8" d="M87.765641,5.578182C91.073351,5.578182,93.754796,8.392624,93.754796,11.864419L93.754796,14.064624L95.329854,14.064624C95.086014,13.379790,94.952382,12.638526,94.952382,11.864419C94.952382,8.392636,97.633816,5.578182,100.941538,5.578182C104.249248,5.578182,106.930693,8.392624,106.930693,11.864419C106.930693,15.336203,104.249259,18.150657,100.941538,18.150657L93.754820,18.150657L93.754820,21.556993C93.754820,22.685313,92.883360,23.600000,91.808363,23.600000C90.733366,23.600000,89.861907,22.685313,89.861907,21.556993L89.861901,21.556993L89.861901,18.150657L89.861901,14.064636L89.861901,11.864432L89.861965,11.864432C89.861965,10.649259,88.923421,9.664160,87.765676,9.664160C86.607931,9.664160,85.669387,10.649259,85.669387,11.864432C85.669387,13.079604,86.607931,14.064704,87.765676,14.064704L87.765676,18.150657C84.457966,18.150657,81.776521,15.336215,81.776521,11.864419C81.776521,8.392636,84.457954,5.578182,87.765676,5.578182L87.765641,5.578182ZM100.936433,14.064630L100.941520,14.064630L100.941520,14.064697C102.099265,14.064697,103.037809,13.079598,103.037809,11.864425C103.037809,10.649252,102.099265,9.664153,100.941520,9.664153C99.783775,9.664153,98.845231,10.649252,98.845231,11.864425C98.845231,13.077815,99.781030,14.061743,100.936433,14.064630Z" fill="rgb(220,26,82)" fill-rule="evenodd" stroke="none" stroke-width="1"/><ellipse id="em8e5kcgliad9" rx="2.047930" ry="1.947030" transform="matrix(0 1 -1 0 100.93787000000002 2.08420000000000)" fill="rgb(220,26,82)" fill-rule="evenodd" stroke="none" stroke-width="1"/><path id="em8e5kcgliad10" d="M66.479648,18.129091C68.037880,18.129091,69.456981,17.500101,70.522399,16.469486C71.587817,17.500101,73.006912,18.129091,74.565145,18.129091C77.872940,18.129091,80.554455,15.295463,80.554455,11.800000L80.554455,7.527856C80.554455,6.391844,79.682973,5.470921,78.607948,5.470921C77.532923,5.470921,76.661441,6.391844,76.661441,7.527856L76.661435,7.527856L76.661435,11.800000L76.661500,11.800000C76.661500,13.023457,75.722931,14.015271,74.565156,14.015271C73.409314,14.015271,72.472007,13.026752,72.468883,11.806104C72.468883,11.804061,72.468959,11.802043,72.468959,11.800000L72.468877,11.800000L72.468877,7.527856C72.468877,6.391844,71.597395,5.470921,70.522370,5.470921C69.447345,5.470921,68.575863,6.391844,68.575863,7.527856L68.575857,7.527856L68.575857,11.800000C68.575857,11.802043,68.575933,11.804061,68.575933,11.806104C68.572808,13.026752,67.635502,14.015271,66.479660,14.015271C65.321885,14.015271,64.383316,13.023457,64.383316,11.800000L64.383234,11.800000C64.383234,8.304549,61.701731,5.470909,58.393923,5.470909L58.393923,9.584716C59.551699,9.584716,60.490267,10.576531,60.490267,11.799988C60.490267,13.023444,59.551699,14.015259,58.393923,14.015259C57.236995,14.015259,56.298988,13.024895,56.297609,11.802672L56.297644,11.799988L56.297644,7.527844L56.297638,7.527844C56.297638,6.391831,55.426156,5.470909,54.351131,5.470909C53.276106,5.470909,52.404624,6.391831,52.404624,7.527844L52.404624,11.799988L52.404659,11.802672C52.403281,13.024895,51.465273,14.015259,50.308345,14.015259L50.308345,18.129091C51.866601,18.129066,53.285719,17.500051,54.351137,16.469418C55.416555,17.500051,56.835668,18.129066,58.393923,18.129066C59.952214,18.129066,61.371362,17.500027,62.436786,16.469350C63.502209,17.500027,64.921357,18.129066,66.479648,18.129066L66.479648,18.129091Z" fill="rgb(220,26,82)" fill-rule="evenodd" stroke="none" stroke-width="1"/><ellipse id="em8e5kcgliad11" rx="2.047930" ry="1.947030" transform="matrix(0 1 -1 0 78.62237000000000 2.08420000000000)" fill="rgb(220,26,82)" fill-rule="evenodd" stroke="none" stroke-width="1"/><polygon id="em8e5kcgliad12" points="63.394270,-3.008228 67.490129,-3.008228 67.490129,7.176423 63.394270,7.176423" transform="matrix(0 -1 1 0 63.35810000000000 67.52630000000001)" fill="rgb(220,26,82)" fill-rule="evenodd" stroke="none" stroke-width="1"/><ellipse id="em8e5kcgliad13" rx="1.985860" ry="2.091820" transform="matrix(1 0 0 1 60.33950000000000 2.09182000000000)" fill="rgb(220,26,82)" fill-rule="evenodd" stroke="none" stroke-width="1"/><ellipse id="em8e5kcgliad14" rx="1.985860" ry="2.091820" transform="matrix(1 0 0 1 70.52330000000001 2.09182000000000)" fill="rgb(220,26,82)" fill-rule="evenodd" stroke="none" stroke-width="1"/><ellipse id="em8e5kcgliad15" rx="2.047930" ry="1.947030" transform="matrix(0 1 -1 0 72.48210000000000 21.51570000000000)" fill="rgb(220,26,82)" fill-rule="evenodd" stroke="none" stroke-width="1"/><ellipse id="em8e5kcgliad16" rx="2.047930" ry="1.947030" transform="matrix(0 1 -1 0 68.58790000000000 21.51570000000000)" fill="rgb(220,26,82)" fill-rule="evenodd" stroke="none" stroke-width="1"/><path id="em8e5kcgliad17" d="M1.952768,10.956262C3.031235,10.956262,3.905507,11.871791,3.905507,13.001150L3.905507,17.307977L3.905443,17.307977C3.905443,18.524268,4.847017,19.510274,6.008498,19.510274C7.169980,19.510274,8.111554,18.524268,8.111554,17.307977L8.111489,17.307977L8.111489,2.152160L8.111495,2.152160C8.111495,1.022801,8.985767,0.107273,10.064234,0.107273C11.142701,0.107273,12.016973,1.022801,12.016973,2.152160L12.016973,17.307977C12.016973,20.782956,9.326885,23.600000,6.008487,23.600000C2.690100,23.600000,0,20.782968,0,17.307977L0,13.001150L5.858909,0C5.858909,0,0,0,0,0L1.952768,10.956262Z" fill="rgb(220,26,82)" fill-rule="evenodd" stroke="none" stroke-width="1"/></g><g id="em8e5kcgliad18" transform="matrix(1 0 0 1 0.53465300000000 0)"><path id="em8e5kcgliad19" d="M16.810777,9.852341C20.540837,9.852341,23.564667,13.136648,23.564667,17.188052C23.564667,21.239442,20.540850,24.523763,16.810777,24.523763C13.080717,24.523763,10.056887,21.239456,10.056887,17.188052C10.056887,13.136662,13.080704,9.852341,16.810777,9.852341ZM16.810777,14.620435C18.116350,14.620435,19.174734,15.769995,19.174734,17.188038C19.174734,18.606081,18.116350,19.755640,16.810777,19.755640C15.505204,19.755640,14.446820,18.606081,14.446820,17.188038C14.446820,15.769995,15.505204,14.620435,16.810777,14.620435Z" fill="rgb(45,62,80)" fill-rule="evenodd" stroke="none" stroke-width="1"/><path id="em8e5kcgliad20" d="M2.275005,24C3.531436,24,4.549970,22.957575,4.549976,21.671649L4.549983,21.671649L4.549983,14.328305L7.583770,14.328305L7.583770,14.328298C8.840200,14.328298,9.858741,13.285859,9.858741,11.999948C9.858741,10.714036,8.840200,9.671597,7.583770,9.671597L4.549983,9.671597L4.549983,7.164184L4.549908,7.164184C4.549908,5.779290,5.646856,4.656604,7,4.656604C8.352694,4.656604,9.449348,5.778542,9.450078,7.162801L9.450058,7.164184C9.450058,8.450095,10.468598,9.492535,11.725029,9.492535C12.981459,9.492535,14,8.450095,14,7.164184C14,7.143639,13.999727,7.123163,13.999208,7.102750C13.966902,3.174410,10.845904,0,6.999980,0C3.134008,0,0,3.207530,0,7.164226L0,14.328382L0,21.671726L0,21.671733C6.825719,0,0,0,0,0L2.275005,24Z" transform="matrix(1 0 0 1 -0.53465299999993 -0)" fill="rgb(45,62,80)" fill-rule="evenodd" stroke="none" stroke-width="1"/><path id="em8e5kcgliad21" d="M24.846460,22.139678C24.846460,23.456370,25.829193,24.523763,27.041453,24.523763C28.253712,24.523763,29.236445,23.456370,29.236445,22.139678L29.236445,17.188060L29.236373,17.188060C29.236373,15.770015,30.294756,14.620454,31.600330,14.620454C32.905903,14.620454,33.964287,15.770015,33.964287,17.188060L33.964214,17.188060L33.964214,22.139678L33.964221,22.139678C33.964221,23.456370,34.946954,24.523763,36.159214,24.523763C37.371474,24.523763,38.354206,23.456370,38.354206,22.139678L38.354206,17.188060C38.354206,13.136666,35.330390,9.852341,31.600317,9.852341C27.870257,9.852341,24.846427,13.136651,24.846427,17.188060L24.846427,22.139678L24.846433,22.139678L24.846460,22.139678Z" fill="rgb(45,62,80)" fill-rule="evenodd" stroke="none" stroke-width="1"/><path id="em8e5kcgliad22" d="M39.734570,22.139678C39.734570,23.456370,40.705724,24.523763,41.903699,24.523763C43.101675,24.523763,44.072829,23.456370,44.072829,22.139678L44.072829,12.236427L44.072822,12.236427C44.072822,10.919734,43.101669,9.852341,41.903693,9.852341C40.705717,9.852341,39.734564,10.919734,39.734564,12.236427L39.734564,22.139678L39.734570,22.139678Z" transform="matrix(1 0 0 1 -0.00934360000000 0.00000002000000)" fill="rgb(45,62,80)" fill-rule="evenodd" stroke="none" stroke-width="1"/><ellipse id="em8e5kcgliad23" rx="2.379510" ry="2.192120" transform="matrix(0 1 -1 0 41.91734000000000 5.86130000000000)" fill="rgb(45,62,80)" fill-rule="evenodd" stroke="none" stroke-width="1"/><path id="em8e5kcgliad24" d="M58.318067,20.453870L58.318074,20.453863L55.311280,17.188045L58.318067,13.922235C59.175265,12.991193,59.175265,11.481672,58.318067,10.550623C57.460869,9.619581,56.071067,9.619581,55.213870,10.550623L55.213863,10.550616L52.207075,13.816426L49.200288,10.550616L49.200275,10.550630C48.343077,9.619588,46.953282,9.619581,46.096084,10.550630C45.238886,11.481672,45.238886,12.991193,46.096084,13.922235L49.102871,17.188045L46.096077,20.453863L46.096084,20.453870C45.238886,21.384912,45.238886,22.894440,46.096084,23.825482C46.953282,24.756524,48.343084,24.756524,49.200281,23.825482L52.207075,20.559664L55.213870,23.825482C56.071067,24.756524,57.460869,24.756524,58.318067,23.825482C59.175265,22.894440,59.175265,21.384912,58.318067,20.453870Z" fill="rgb(45,62,80)" fill-rule="evenodd" stroke="none" stroke-width="1"/><path id="em8e5kcgliad25" d="M62.437745,24.523763C63.650004,24.523763,64.632737,23.458577,64.632737,22.144607L64.632744,22.144607L64.632744,7.320551L64.632672,7.320551C64.632672,5.905438,65.691055,4.758255,66.996628,4.758255C68.302202,4.758255,69.360585,5.905438,69.360585,7.320551L69.360513,7.320551L69.360513,22.144607C69.360513,23.458577,70.343246,24.523763,71.555506,24.523763C72.767765,24.523763,73.750499,23.458577,73.750499,22.144607L73.750505,22.144607L73.750505,7.320551C73.750505,3.277534,70.726688,0,66.996615,0C63.266555,0,60.242725,3.277519,60.242725,7.320551L60.242725,22.144607C60.242725,23.458577,61.225458,24.523763,62.437718,24.523763L62.437745,24.523763Z" fill="rgb(45,62,80)" fill-rule="evenodd" stroke="none" stroke-width="1"/><path id="em8e5kcgliad26" d="M78.374709,24.523749C77.171298,24.523749,76.195738,23.458563,76.195738,22.144593L76.195732,22.144593L76.195732,7.320537L76.195804,7.320537C76.195804,5.905424,75.145146,4.758240,73.849102,4.758240L73.849102,0C77.551935,0,80.553693,3.277519,80.553693,7.320551L80.553693,22.144607C80.553693,23.458577,79.578134,24.523763,78.374722,24.523763L78.374709,24.523749Z" fill="rgb(45,62,80)" fill-rule="evenodd" stroke="none" stroke-width="1"/><path id="em8e5kcgliad27" d="M90.953248,22.139666C90.953248,23.456357,91.935981,24.523749,93.148240,24.523749C94.360500,24.523749,95.343233,23.456357,95.343233,22.139666L95.343233,17.188052C95.343233,13.136662,92.319416,9.852341,88.589343,9.852341C84.859283,9.852341,81.835453,13.136648,81.835453,17.188052C81.835453,21.239442,84.859270,24.523763,88.589343,24.523763L88.589343,19.755669C87.283770,19.755669,86.225386,18.606110,86.225386,17.188067C86.225386,15.770023,87.283770,14.620464,88.589343,14.620464C89.894917,14.620464,90.953300,15.770023,90.953300,17.188067L90.953228,17.188067L90.953228,22.139680L90.953234,22.139680L90.953248,22.139666Z" fill="rgb(45,62,80)" fill-rule="evenodd" stroke="none" stroke-width="1"/><path id="em8e5kcgliad28" d="M96.723590,22.144603C96.723590,23.458575,97.694744,24.523763,98.892719,24.523763C100.090695,24.523763,101.061849,23.458575,101.061849,22.144603L101.061855,22.144603L101.061855,2.379160L101.061849,2.379160C101.061849,1.065188,100.090695,0,98.892719,0C97.694744,0,96.723590,1.065188,96.723590,2.379160L96.723590,22.144603Z" fill="rgb(45,62,80)" fill-rule="evenodd" stroke="none" stroke-width="1"/><path id="em8e5kcgliad29" d="M102.442212,22.144603C102.442212,23.458575,103.413366,24.523763,104.611341,24.523763C105.809317,24.523763,106.780471,23.458575,106.780471,22.144603L106.780477,22.144603L106.780477,2.379160L106.780471,2.379160C106.780471,1.065188,105.809317,0,104.611341,0C103.413366,0,102.442212,1.065188,102.442212,2.379160L102.442212,22.144603Z" fill="rgb(45,62,80)" fill-rule="evenodd" stroke="none" stroke-width="1"/></g></g></g></g></svg>