<?xml version="1.0" encoding="UTF-8"?>
<svg width="23px" height="23px" viewBox="0 0 23 23" version="1.1" xmlns="http://www.w3.org/2000/svg" xmlns:xlink="http://www.w3.org/1999/xlink">
    <!-- Generator: Sketch 52.3 (67297) - http://www.bohemiancoding.com/sketch -->
    <title>Shape@1.5x</title>
    <desc>Created with Sketch.</desc>
    <g id="Page-1" stroke="none" stroke-width="1" fill="none" fill-rule="evenodd">
        <g id="phonix" transform="translate(-256.000000, -58.000000)" fill="#E86E6E" fill-rule="nonzero">
            <g id="Group" transform="translate(0.000000, 11.000000)">
                <g id="Group-2" transform="translate(89.000000, 35.500000)">
                    <g id="like" transform="translate(167.000000, 12.000000)">
                        <path d="M20.936342,1.93090724 C19.8096513,0.761927036 18.185902,0.0125277149 16.4776287,0.0125277149 C15.4718994,0.0125277149 14.5269113,0.253754525 13.6183606,0.736754525 C12.7095121,1.21944231 11.970568,1.87993778 11.3889853,2.71851414 C10.8074399,1.87993778 10.0684213,1.21944231 9.15964729,0.736715498 C8.25083604,0.253754525 7.30584801,0.0124886878 6.30037925,0.0124886878 C4.59210589,0.0124886878 2.96861719,0.761927036 1.84166592,1.93086821 C0.714937972,3.09961425 0,4.80197851 0,6.5935198 C0,7.82564593 0.249664424,9.02171097 0.557278685,9.92210633 C0.710025077,10.3684989 0.940856734,10.8522794 1.24791271,11.3450362 C1.55861614,11.8434519 1.84162871,12.2597545 2.08381213,12.5898462 C2.32625609,12.920289 2.6715731,13.3332743 3.13788878,13.8095226 C3.60442777,14.2862393 3.98595878,14.6607828 4.26457951,14.9274943 C4.54320024,15.1945181 4.96712359,15.5885752 5.5246628,16.0964745 C6.16646562,16.6811012 6.62422095,17.116371 6.91810144,17.392293 C7.20576637,17.662517 7.62090605,18.0782342 8.16601415,18.6246923 C9.26866147,19.729629 10.0776888,20.7479253 10.8435795,21.9150322 C10.9865001,22.1329598 11.1708081,22.2326742 11.3886876,22.2326742 C11.6189982,22.2326742 11.8182682,22.1351063 11.9580996,21.9150322 C12.4484587,21.1439338 13.0152655,20.3552342 13.6785436,19.577384 C14.3480001,18.792509 14.9052787,18.1834514 15.3506402,17.7479084 C15.8019566,17.3066284 16.4507194,16.6908971 17.2892241,15.905944 C17.8077207,15.4202511 18.2220416,15.0546838 18.5009601,14.7879723 C18.7795808,14.5210266 19.1430234,14.1526493 19.591474,13.6827234 C20.0397013,13.2124853 20.3940253,12.8083592 20.6455507,12.4755356 C20.9029938,12.1351018 21.1749152,11.7233654 21.4814501,11.2306476 C22.1077326,10.2242936 22.3819615,9.42747624 22.6081408,8.30864593 C22.7208025,7.75032353 22.7777102,7.1778733 22.7777102,6.59355882 C22.7779707,4.80197851 22.0630327,3.09961425 20.936342,1.93090724 Z M21.3240513,7.88929921 C21.0906516,9.29895984 20.388368,10.6814966 19.215898,12.0437002 C18.7041381,12.6380837 17.7648445,13.5842969 16.3928068,14.8641143 C15.680958,15.5282002 15.1087173,16.071302 14.6602295,16.5030984 C14.2241728,16.9226403 13.6878483,17.4907585 13.0489114,18.2054236 C12.4156317,18.9136103 11.8614794,19.6155916 11.3889481,20.3016109 C10.8921502,19.6283925 10.3196489,18.9453394 9.6685414,18.2433971 C9.01121829,17.5352104 8.50541336,16.998509 8.12983737,16.6426595 C7.75426139,16.2870831 7.1820207,15.7566261 6.39726006,15.0291991 L5.56136065,14.254315 L4.79807531,13.5300882 C4.46749699,13.2165051 4.21314298,12.9614627 4.04692335,12.767927 C3.88617489,12.5804016 3.67138458,12.3358965 3.40489721,12.0309774 C3.13840984,11.7260583 2.93344532,11.4586052 2.79901063,11.2433314 C2.52143203,10.7980317 2.04942186,10.1334774 1.87832655,9.57894061 L1.5996686,8.67694514 C1.3965278,8.01941572 1.33318123,7.34291912 1.33318123,6.5935198 C1.33318123,5.17058993 1.81780861,3.95095249 2.78710058,2.94729129 C3.76852593,1.93094627 4.93169119,1.42273473 6.30056534,1.42273473 C7.25768674,1.42273473 8.14219405,1.68940724 8.95408727,2.23582636 C9.76594328,2.78193326 10.3917048,3.50210124 10.795716,4.40815554 C10.9128067,4.67104242 11.1108112,4.80197851 11.389432,4.80197851 C11.6680527,4.80197851 11.8833641,4.68001867 12.0074519,4.40815554 C12.4165994,3.51076527 13.0010106,2.78193326 13.8126433,2.23582636 C14.624276,1.68940724 15.5208795,1.42273473 16.4780381,1.42273473 C17.8471728,1.42273473 19.010338,1.93090724 19.97963,2.93456844 C20.948922,3.93822964 21.4335121,5.15786708 21.4335121,6.5935198 C21.4331027,7.038 21.3935763,7.46948416 21.3240513,7.88929921 Z" id="Shape"></path>
                    </g>
                </g>
            </g>
        </g>
    </g>
</svg>