<?xml version="1.0" encoding="UTF-8"?>
<svg width="20px" height="22px" viewBox="0 0 20 22" version="1.1" xmlns="http://www.w3.org/2000/svg" xmlns:xlink="http://www.w3.org/1999/xlink">
    <!-- Generator: Sketch 52.3 (67297) - http://www.bohemiancoding.com/sketch -->
    <title>user</title>
    <desc>Created with Sketch.</desc>
    <g id="Page-1" stroke="none" stroke-width="1" fill="none" fill-rule="evenodd">
        <g id="phonix" transform="translate(-200.000000, -47.000000)" fill="#2D3E50">
            <g id="Group">
                <g id="Group-2" transform="translate(89.000000, 35.500000)">
                    <g id="user" transform="translate(111.000000, 12.000000)">
                        <g id="avatar">
                            <path d="M9.73575534,11.75 C9.75825372,11.75 9.7807521,11.75 9.80775016,11.75 C9.81674951,11.75 9.82574887,11.75 9.83474822,11.75 C9.84824725,11.75 9.86624595,11.75 9.87974498,11.75 C11.1981501,11.7274212 12.2645734,11.2622982 13.0520167,10.3726941 C14.7843921,8.4128555 14.4964128,5.05313221 14.464915,4.73251345 C14.3524231,2.32561491 13.2185047,1.17409685 12.2825721,0.636721752 C11.5851223,0.23481937 10.7706809,0.0180630284 9.86174628,0 L9.83024854,0 C9.82574887,0 9.81674951,0 9.81224984,0 L9.78525178,0 C9.28578772,0 8.30485831,0.081283628 7.36442598,0.618658724 C6.41949398,1.15603382 5.26757687,2.30755188 5.15508496,4.73251345 C5.12358723,5.05313221 4.83560795,8.4128555 6.56798329,10.3726941 C7.35092695,11.2622982 8.41735021,11.7274212 9.73575534,11.75 Z M6.35649851,4.84540738 C6.35649851,4.83186011 6.36099819,4.81831284 6.36099819,4.80928132 C6.5094875,1.57148347 8.79982269,1.22377018 9.7807521,1.22377018 L9.79875081,1.22377018 C9.80775016,1.22377018 9.82124919,1.22377018 9.83474822,1.22377018 C11.0496608,1.25086472 13.1150122,1.747598 13.2545021,4.80928132 C13.2545021,4.82282859 13.2545021,4.83637586 13.2590018,4.84540738 C13.2635015,4.87701768 13.5784788,7.94773251 12.1475818,9.56437356 C11.5806226,10.2056111 10.824677,10.5217141 9.83024854,10.5307456 C9.82124919,10.5307456 9.81674951,10.5307456 9.80775016,10.5307456 C9.79875081,10.5307456 9.79425113,10.5307456 9.78525178,10.5307456 C8.79532301,10.5217141 8.03487774,10.2056111 7.47241821,9.56437356 C6.04602085,7.95676403 6.35199883,4.87250192 6.35649851,4.84540738 Z" id="Shape" fill-rule="nonzero"></path>
                            <path d="M19.6186623,16.976535 C19.6186623,16.9723321 19.6186623,16.9681293 19.6186623,16.9639264 C19.6186623,16.9303033 19.6138857,16.8966802 19.6138857,16.8588542 C19.5852263,16.026683 19.5231309,14.0807472 17.4501007,13.4587201 C17.435771,13.4545173 17.4166647,13.4503144 17.402335,13.4461115 C15.2481031,12.9627797 13.4568904,11.8700296 13.4377841,11.8574209 C13.1464135,11.6766968 12.7451818,11.7397401 12.5397894,11.9961161 C12.334397,12.2524921 12.4060455,12.6055345 12.6974161,12.7862585 C12.7786178,12.8366931 14.6796916,14.0008923 17.0584222,14.5388616 C18.1713624,14.8877011 18.2955531,15.9342195 18.3289891,16.8924773 C18.3289891,16.9303033 18.3289891,16.9639264 18.3337657,16.9975495 C18.3385422,17.3758091 18.3098828,17.9600102 18.2334578,18.296241 C17.4596538,18.6829064 14.4265335,20.0194239 9.81236944,20.0194239 C5.21731161,20.0194239 2.16508505,18.6787035 1.38650456,18.2920381 C1.31007948,17.9558073 1.27664351,17.3716062 1.28619665,16.9933466 C1.28619665,16.9597235 1.29097321,16.9261004 1.29097321,16.8882744 C1.32440918,15.9300166 1.44859994,14.8834982 2.56154014,14.5346588 C4.9402707,13.9966894 6.84134452,12.8282874 6.92254617,12.7820556 C7.21391678,12.6013316 7.28556529,12.2482892 7.08017289,11.9919132 C6.87478049,11.7355372 6.47354883,11.672494 6.18217822,11.853218 C6.16307195,11.8658267 4.38141231,12.9585768 2.21762729,13.4419086 C2.19852102,13.4461115 2.18419131,13.4503144 2.16986161,13.4545173 C0.0968313648,14.0807472 0.0347359887,16.026683 0.00607658437,16.8546514 C0.00607658437,16.8924773 0.00607658437,16.9261004 0.00130001698,16.9597235 C0.00130001698,16.9639264 0.00130001698,16.9681293 0.00130001698,16.9723321 C-0.00347655041,17.1908822 -0.0082531178,18.3130525 0.244904954,18.8762391 C0.292670628,18.9855141 0.378648841,19.0779776 0.493286458,19.1410209 C0.63658348,19.2250786 4.07093543,21.15 9.81714601,21.15 C15.5633566,21.15 18.9977085,19.2208757 19.1410056,19.1410209 C19.2508666,19.0779776 19.3416214,18.9855141 19.3893871,18.8762391 C19.6282154,18.3172554 19.6234389,17.1950851 19.6186623,16.976535 Z" id="Path"></path>
                        </g>
                    </g>
                </g>
            </g>
        </g>
    </g>
</svg>